<mxfile host="app.diagrams.net" modified="2021-12-23T07:49:23.854Z" agent="5.0 (Macintosh; Intel Mac OS X 10_15_7) AppleWebKit/537.36 (KHTML, like Gecko) Chrome/96.0.4664.110 Safari/537.36" etag="-SxjduMaJm3v_nHZxxMF" version="16.0.3" type="github">
  <diagram id="oNUJ1xe47OoZGaQnLxCl" name="Page-1">
    <mxGraphModel dx="946" dy="589" grid="1" gridSize="10" guides="1" tooltips="1" connect="1" arrows="1" fold="1" page="1" pageScale="1" pageWidth="827" pageHeight="1169" math="0" shadow="0">
      <root>
        <mxCell id="0" />
        <mxCell id="1" parent="0" />
        <mxCell id="5Pydk1ctjDTBAbrH4P00-10" value="" style="rounded=0;whiteSpace=wrap;html=1;" vertex="1" parent="1">
          <mxGeometry x="20" y="105" width="800" height="130" as="geometry" />
        </mxCell>
        <mxCell id="5Pydk1ctjDTBAbrH4P00-4" style="edgeStyle=orthogonalEdgeStyle;rounded=0;orthogonalLoop=1;jettySize=auto;html=1;exitX=1;exitY=0.5;exitDx=0;exitDy=0;" edge="1" parent="1" source="5Pydk1ctjDTBAbrH4P00-1">
          <mxGeometry relative="1" as="geometry">
            <mxPoint x="250" y="170" as="targetPoint" />
          </mxGeometry>
        </mxCell>
        <mxCell id="5Pydk1ctjDTBAbrH4P00-1" value="node1" style="rounded=0;whiteSpace=wrap;html=1;" vertex="1" parent="1">
          <mxGeometry x="110" y="140" width="90" height="60" as="geometry" />
        </mxCell>
        <mxCell id="5Pydk1ctjDTBAbrH4P00-8" style="edgeStyle=orthogonalEdgeStyle;rounded=0;orthogonalLoop=1;jettySize=auto;html=1;exitX=1;exitY=0.5;exitDx=0;exitDy=0;entryX=0;entryY=0.5;entryDx=0;entryDy=0;" edge="1" parent="1" source="5Pydk1ctjDTBAbrH4P00-2" target="5Pydk1ctjDTBAbrH4P00-7">
          <mxGeometry relative="1" as="geometry" />
        </mxCell>
        <mxCell id="5Pydk1ctjDTBAbrH4P00-2" value="node2" style="rounded=0;whiteSpace=wrap;html=1;" vertex="1" parent="1">
          <mxGeometry x="390" y="140" width="90" height="60" as="geometry" />
        </mxCell>
        <mxCell id="5Pydk1ctjDTBAbrH4P00-38" style="edgeStyle=orthogonalEdgeStyle;rounded=0;orthogonalLoop=1;jettySize=auto;html=1;entryX=0.5;entryY=0;entryDx=0;entryDy=0;" edge="1" parent="1" source="5Pydk1ctjDTBAbrH4P00-3" target="5Pydk1ctjDTBAbrH4P00-1">
          <mxGeometry relative="1" as="geometry">
            <Array as="points">
              <mxPoint x="790" y="170" />
              <mxPoint x="790" y="120" />
              <mxPoint x="155" y="120" />
            </Array>
          </mxGeometry>
        </mxCell>
        <mxCell id="5Pydk1ctjDTBAbrH4P00-39" value="执行到末节点" style="edgeLabel;html=1;align=center;verticalAlign=middle;resizable=0;points=[];" vertex="1" connectable="0" parent="5Pydk1ctjDTBAbrH4P00-38">
          <mxGeometry x="-0.8067" relative="1" as="geometry">
            <mxPoint as="offset" />
          </mxGeometry>
        </mxCell>
        <mxCell id="5Pydk1ctjDTBAbrH4P00-3" value="node3" style="rounded=0;whiteSpace=wrap;html=1;" vertex="1" parent="1">
          <mxGeometry x="660" y="140" width="90" height="60" as="geometry" />
        </mxCell>
        <mxCell id="5Pydk1ctjDTBAbrH4P00-6" style="edgeStyle=orthogonalEdgeStyle;rounded=0;orthogonalLoop=1;jettySize=auto;html=1;exitX=1;exitY=0.5;exitDx=0;exitDy=0;entryX=0;entryY=0.5;entryDx=0;entryDy=0;" edge="1" parent="1" source="5Pydk1ctjDTBAbrH4P00-5" target="5Pydk1ctjDTBAbrH4P00-2">
          <mxGeometry relative="1" as="geometry">
            <mxPoint x="380" y="170" as="targetPoint" />
          </mxGeometry>
        </mxCell>
        <mxCell id="5Pydk1ctjDTBAbrH4P00-36" value="满足" style="edgeLabel;html=1;align=center;verticalAlign=middle;resizable=0;points=[];" vertex="1" connectable="0" parent="5Pydk1ctjDTBAbrH4P00-6">
          <mxGeometry x="-0.4333" y="-1" relative="1" as="geometry">
            <mxPoint x="3" y="-1" as="offset" />
          </mxGeometry>
        </mxCell>
        <mxCell id="5Pydk1ctjDTBAbrH4P00-34" style="edgeStyle=orthogonalEdgeStyle;rounded=0;orthogonalLoop=1;jettySize=auto;html=1;exitX=0.5;exitY=1;exitDx=0;exitDy=0;entryX=0.5;entryY=1;entryDx=0;entryDy=0;" edge="1" parent="1" source="5Pydk1ctjDTBAbrH4P00-5" target="5Pydk1ctjDTBAbrH4P00-1">
          <mxGeometry relative="1" as="geometry" />
        </mxCell>
        <mxCell id="5Pydk1ctjDTBAbrH4P00-35" value="不满足算子" style="edgeLabel;html=1;align=center;verticalAlign=middle;resizable=0;points=[];" vertex="1" connectable="0" parent="5Pydk1ctjDTBAbrH4P00-34">
          <mxGeometry x="-0.2649" y="1" relative="1" as="geometry">
            <mxPoint as="offset" />
          </mxGeometry>
        </mxCell>
        <mxCell id="5Pydk1ctjDTBAbrH4P00-5" value="算子" style="rhombus;whiteSpace=wrap;html=1;" vertex="1" parent="1">
          <mxGeometry x="250" y="130" width="80" height="80" as="geometry" />
        </mxCell>
        <mxCell id="5Pydk1ctjDTBAbrH4P00-9" value="满足" style="edgeStyle=orthogonalEdgeStyle;rounded=0;orthogonalLoop=1;jettySize=auto;html=1;entryX=0;entryY=0.5;entryDx=0;entryDy=0;" edge="1" parent="1" source="5Pydk1ctjDTBAbrH4P00-7" target="5Pydk1ctjDTBAbrH4P00-3">
          <mxGeometry relative="1" as="geometry" />
        </mxCell>
        <mxCell id="5Pydk1ctjDTBAbrH4P00-37" value="不满足" style="edgeStyle=orthogonalEdgeStyle;rounded=0;orthogonalLoop=1;jettySize=auto;html=1;exitX=0.5;exitY=1;exitDx=0;exitDy=0;entryX=0.5;entryY=1;entryDx=0;entryDy=0;" edge="1" parent="1" source="5Pydk1ctjDTBAbrH4P00-7" target="5Pydk1ctjDTBAbrH4P00-2">
          <mxGeometry relative="1" as="geometry">
            <Array as="points">
              <mxPoint x="570" y="230" />
              <mxPoint x="435" y="230" />
            </Array>
          </mxGeometry>
        </mxCell>
        <mxCell id="5Pydk1ctjDTBAbrH4P00-7" value="算子" style="rhombus;whiteSpace=wrap;html=1;" vertex="1" parent="1">
          <mxGeometry x="530" y="130" width="80" height="80" as="geometry" />
        </mxCell>
        <mxCell id="5Pydk1ctjDTBAbrH4P00-11" value="主流程1" style="text;html=1;strokeColor=none;fillColor=none;align=center;verticalAlign=middle;whiteSpace=wrap;rounded=0;" vertex="1" parent="1">
          <mxGeometry x="30" y="110" width="60" height="30" as="geometry" />
        </mxCell>
        <mxCell id="5Pydk1ctjDTBAbrH4P00-12" value="" style="rounded=0;whiteSpace=wrap;html=1;" vertex="1" parent="1">
          <mxGeometry x="20" y="260" width="800" height="130" as="geometry" />
        </mxCell>
        <mxCell id="5Pydk1ctjDTBAbrH4P00-13" style="edgeStyle=orthogonalEdgeStyle;rounded=0;orthogonalLoop=1;jettySize=auto;html=1;exitX=1;exitY=0.5;exitDx=0;exitDy=0;" edge="1" parent="1" source="5Pydk1ctjDTBAbrH4P00-14">
          <mxGeometry relative="1" as="geometry">
            <mxPoint x="250" y="325" as="targetPoint" />
          </mxGeometry>
        </mxCell>
        <mxCell id="5Pydk1ctjDTBAbrH4P00-14" value="node4" style="rounded=0;whiteSpace=wrap;html=1;" vertex="1" parent="1">
          <mxGeometry x="110" y="295" width="90" height="60" as="geometry" />
        </mxCell>
        <mxCell id="5Pydk1ctjDTBAbrH4P00-15" style="edgeStyle=orthogonalEdgeStyle;rounded=0;orthogonalLoop=1;jettySize=auto;html=1;exitX=1;exitY=0.5;exitDx=0;exitDy=0;entryX=0;entryY=0.5;entryDx=0;entryDy=0;" edge="1" parent="1" source="5Pydk1ctjDTBAbrH4P00-16" target="5Pydk1ctjDTBAbrH4P00-21">
          <mxGeometry relative="1" as="geometry" />
        </mxCell>
        <mxCell id="5Pydk1ctjDTBAbrH4P00-16" value="node5" style="rounded=0;whiteSpace=wrap;html=1;" vertex="1" parent="1">
          <mxGeometry x="390" y="295" width="90" height="60" as="geometry" />
        </mxCell>
        <mxCell id="5Pydk1ctjDTBAbrH4P00-17" value="node6" style="rounded=0;whiteSpace=wrap;html=1;" vertex="1" parent="1">
          <mxGeometry x="660" y="295" width="90" height="60" as="geometry" />
        </mxCell>
        <mxCell id="5Pydk1ctjDTBAbrH4P00-18" style="edgeStyle=orthogonalEdgeStyle;rounded=0;orthogonalLoop=1;jettySize=auto;html=1;exitX=1;exitY=0.5;exitDx=0;exitDy=0;entryX=0;entryY=0.5;entryDx=0;entryDy=0;" edge="1" parent="1" source="5Pydk1ctjDTBAbrH4P00-19" target="5Pydk1ctjDTBAbrH4P00-16">
          <mxGeometry relative="1" as="geometry">
            <mxPoint x="380" y="325" as="targetPoint" />
          </mxGeometry>
        </mxCell>
        <mxCell id="5Pydk1ctjDTBAbrH4P00-19" value="&lt;span&gt;算子&lt;/span&gt;" style="rhombus;whiteSpace=wrap;html=1;" vertex="1" parent="1">
          <mxGeometry x="250" y="285" width="80" height="80" as="geometry" />
        </mxCell>
        <mxCell id="5Pydk1ctjDTBAbrH4P00-20" style="edgeStyle=orthogonalEdgeStyle;rounded=0;orthogonalLoop=1;jettySize=auto;html=1;entryX=0;entryY=0.5;entryDx=0;entryDy=0;" edge="1" parent="1" source="5Pydk1ctjDTBAbrH4P00-21" target="5Pydk1ctjDTBAbrH4P00-17">
          <mxGeometry relative="1" as="geometry" />
        </mxCell>
        <mxCell id="5Pydk1ctjDTBAbrH4P00-21" value="&lt;span&gt;算子&lt;/span&gt;" style="rhombus;whiteSpace=wrap;html=1;" vertex="1" parent="1">
          <mxGeometry x="530" y="285" width="80" height="80" as="geometry" />
        </mxCell>
        <mxCell id="5Pydk1ctjDTBAbrH4P00-22" value="子流程1" style="text;html=1;strokeColor=none;fillColor=none;align=center;verticalAlign=middle;whiteSpace=wrap;rounded=0;" vertex="1" parent="1">
          <mxGeometry x="30" y="265" width="60" height="30" as="geometry" />
        </mxCell>
        <mxCell id="5Pydk1ctjDTBAbrH4P00-23" value="" style="rounded=0;whiteSpace=wrap;html=1;" vertex="1" parent="1">
          <mxGeometry x="20" y="420" width="800" height="130" as="geometry" />
        </mxCell>
        <mxCell id="5Pydk1ctjDTBAbrH4P00-24" style="edgeStyle=orthogonalEdgeStyle;rounded=0;orthogonalLoop=1;jettySize=auto;html=1;exitX=1;exitY=0.5;exitDx=0;exitDy=0;" edge="1" parent="1" source="5Pydk1ctjDTBAbrH4P00-25">
          <mxGeometry relative="1" as="geometry">
            <mxPoint x="250" y="485" as="targetPoint" />
          </mxGeometry>
        </mxCell>
        <mxCell id="5Pydk1ctjDTBAbrH4P00-25" value="node7" style="rounded=0;whiteSpace=wrap;html=1;" vertex="1" parent="1">
          <mxGeometry x="110" y="455" width="90" height="60" as="geometry" />
        </mxCell>
        <mxCell id="5Pydk1ctjDTBAbrH4P00-26" style="edgeStyle=orthogonalEdgeStyle;rounded=0;orthogonalLoop=1;jettySize=auto;html=1;exitX=1;exitY=0.5;exitDx=0;exitDy=0;entryX=0;entryY=0.5;entryDx=0;entryDy=0;" edge="1" parent="1" source="5Pydk1ctjDTBAbrH4P00-27" target="5Pydk1ctjDTBAbrH4P00-32">
          <mxGeometry relative="1" as="geometry" />
        </mxCell>
        <mxCell id="5Pydk1ctjDTBAbrH4P00-27" value="node8" style="rounded=0;whiteSpace=wrap;html=1;" vertex="1" parent="1">
          <mxGeometry x="390" y="455" width="90" height="60" as="geometry" />
        </mxCell>
        <mxCell id="5Pydk1ctjDTBAbrH4P00-28" value="node9" style="rounded=0;whiteSpace=wrap;html=1;" vertex="1" parent="1">
          <mxGeometry x="660" y="455" width="90" height="60" as="geometry" />
        </mxCell>
        <mxCell id="5Pydk1ctjDTBAbrH4P00-29" style="edgeStyle=orthogonalEdgeStyle;rounded=0;orthogonalLoop=1;jettySize=auto;html=1;exitX=1;exitY=0.5;exitDx=0;exitDy=0;entryX=0;entryY=0.5;entryDx=0;entryDy=0;" edge="1" parent="1" source="5Pydk1ctjDTBAbrH4P00-30" target="5Pydk1ctjDTBAbrH4P00-27">
          <mxGeometry relative="1" as="geometry">
            <mxPoint x="380" y="485" as="targetPoint" />
          </mxGeometry>
        </mxCell>
        <mxCell id="5Pydk1ctjDTBAbrH4P00-30" value="&lt;span&gt;算子&lt;/span&gt;" style="rhombus;whiteSpace=wrap;html=1;" vertex="1" parent="1">
          <mxGeometry x="250" y="445" width="80" height="80" as="geometry" />
        </mxCell>
        <mxCell id="5Pydk1ctjDTBAbrH4P00-31" style="edgeStyle=orthogonalEdgeStyle;rounded=0;orthogonalLoop=1;jettySize=auto;html=1;entryX=0;entryY=0.5;entryDx=0;entryDy=0;" edge="1" parent="1" source="5Pydk1ctjDTBAbrH4P00-32" target="5Pydk1ctjDTBAbrH4P00-28">
          <mxGeometry relative="1" as="geometry" />
        </mxCell>
        <mxCell id="5Pydk1ctjDTBAbrH4P00-32" value="&lt;span&gt;算子&lt;/span&gt;" style="rhombus;whiteSpace=wrap;html=1;" vertex="1" parent="1">
          <mxGeometry x="530" y="445" width="80" height="80" as="geometry" />
        </mxCell>
        <mxCell id="5Pydk1ctjDTBAbrH4P00-33" value="子流程2" style="text;html=1;strokeColor=none;fillColor=none;align=center;verticalAlign=middle;whiteSpace=wrap;rounded=0;" vertex="1" parent="1">
          <mxGeometry x="30" y="425" width="60" height="30" as="geometry" />
        </mxCell>
      </root>
    </mxGraphModel>
  </diagram>
</mxfile>
